<svg id="Layer_1" data-name="Layer 1" xmlns="http://www.w3.org/2000/svg" xmlns:xlink="http://www.w3.org/1999/xlink" viewBox="0 0 1000 1000"><defs><style>.cls-1{fill:none;}.cls-2{fill:#fff;}.cls-3{clip-path:url(#clip-path);}.cls-4{fill:#e55c20;}.cls-5{fill:#fedac2;}.cls-6{fill:#ff685d;}.cls-7{fill:#f39cad;}.cls-8{fill:#ef6f2e;}.cls-9{fill:#f9b38c;}.cls-10{fill:#794901;}</style><clipPath id="clip-path"><circle class="cls-1" cx="508.59" cy="491.22" r="393.04"/></clipPath></defs><title>mama</title><circle class="cls-2" cx="508.59" cy="491.22" r="393.04"/><g class="cls-3"><ellipse class="cls-4" cx="508.15" cy="840" rx="153.25" ry="139.9"/><rect class="cls-5" x="475.34" y="597.65" width="71.29" height="153.89" rx="35.64" ry="35.64"/><ellipse class="cls-5" cx="510.98" cy="513.45" rx="161.5" ry="175.68"/><circle cx="442.51" cy="512.5" r="13.09"/><circle cx="582.7" cy="512.5" r="13.09"/><path class="cls-6" d="M512.64,649.45a42.21,42.21,0,0,0,42.21-42.21H470.42A42.21,42.21,0,0,0,512.64,649.45Z"/><path class="cls-7" d="M553.48,618.09a90,90,0,0,0-28.79-4.62c-19,0-36.25,5.66-48.61,14.79a42.21,42.21,0,0,0,77.4-10.17Z"/><ellipse class="cls-8" cx="418.78" cy="572.87" rx="23.73" ry="12.71"/><ellipse class="cls-8" cx="606.43" cy="572.87" rx="23.73" ry="12.71"/><circle class="cls-9" cx="524.28" cy="571.04" r="4.64"/><circle class="cls-9" cx="504.89" cy="571.04" r="4.64"/><circle class="cls-5" cx="674.34" cy="536.19" r="30.21"/><circle class="cls-5" cx="342.84" cy="536.19" r="30.21"/><path class="cls-10" d="M591,399.5S594,460.41,483.86,476,368.73,499.4,362.33,525.59c-3.73,15.24,14.8,76.74,19.4,93.22,0,0-174.85-258,118.28-307.83,0,0,112.87-10.52,161.39,76.35,35.48,63.54,50.24,112.07-17.28,225.56,0,0,33.49-79.08,14.41-100.94S591,435.42,591,399.5Z"/><circle class="cls-10" cx="510.31" cy="293.29" r="72.39"/></g></svg>