<svg id="Layer_1" data-name="Layer 1" xmlns="http://www.w3.org/2000/svg" xmlns:xlink="http://www.w3.org/1999/xlink" viewBox="0 0 1000 1000"><defs><style>.cls-1{fill:none;}.cls-2{fill:#fff;}.cls-3{clip-path:url(#clip-path);}.cls-4{fill:#be926b;}.cls-5{fill:#fedac2;}.cls-6{fill:#8d9095;}.cls-7{fill:#ff685d;}.cls-8{fill:#f39cad;}.cls-9{fill:#ef6f2e;}.cls-10{fill:#f9b38c;}</style><clipPath id="clip-path"><circle class="cls-1" cx="500" cy="492.49" r="393.04"/></clipPath></defs><title>lolo</title><circle class="cls-2" cx="500" cy="492.49" r="393.04"/><g class="cls-3"><ellipse class="cls-4" cx="499.56" cy="854.95" rx="153.25" ry="139.9"/><rect class="cls-5" x="466.75" y="612.59" width="71.29" height="153.89" rx="35.64" ry="35.64"/><ellipse class="cls-5" cx="502.39" cy="528.4" rx="161.5" ry="175.68"/><path class="cls-6" d="M334.57,522.64c.43-38.37,8.19-73.38,18.37-110.06,7.53-27.15,34.82-43,60.06-52.71,58.3-22.36,122-12.24,180.46.86,0,0,98.2,22,72.9,161.91v28.5c-14.91,0-22.72-.93-37.57,0-3.47-19.87-5.37-40.68-3.06-60.8,1.15-9.94,5.75-18.6,7.15-28.64,2.09-14.85,2.89-35.7-6.61-48.13-10-13.14-25.1-22-41.74-23-19-1.18-31.57,11.46-48.95,16.71-17.78,5.37-38.14,7-55.2-1.16-43.15-20.73-101.17-29.79-108.61,35,0,22.28,2.9,42.68,5.21,64a131.36,131.36,0,0,1-3.72,46.1h-39Z"/><circle class="cls-5" cx="665.75" cy="551.14" r="30.21"/><circle class="cls-5" cx="334.25" cy="551.14" r="30.21"/><circle cx="433.92" cy="527.44" r="13.09"/><circle cx="574.11" cy="527.44" r="13.09"/><path class="cls-7" d="M504.05,664.4a42.21,42.21,0,0,0,42.21-42.22H461.83A42.22,42.22,0,0,0,504.05,664.4Z"/><path class="cls-8" d="M544.89,633a90,90,0,0,0-28.79-4.63c-19,0-36.25,5.67-48.61,14.79A42.21,42.21,0,0,0,544.89,633Z"/><ellipse class="cls-9" cx="410.19" cy="587.81" rx="23.73" ry="12.71"/><ellipse class="cls-9" cx="597.84" cy="587.81" rx="23.73" ry="12.71"/><circle class="cls-10" cx="515.69" cy="585.99" r="4.64"/><circle class="cls-10" cx="496.3" cy="585.99" r="4.64"/></g></svg>