<svg id="Layer_1" data-name="Layer 1" xmlns="http://www.w3.org/2000/svg" xmlns:xlink="http://www.w3.org/1999/xlink" viewBox="0 0 1000 1000"><defs><style>.cls-1{fill:none;}.cls-2{fill:#fff;}.cls-3{clip-path:url(#clip-path);}.cls-4{fill:#ff6861;}.cls-5{fill:#fedac2;}.cls-6{fill:#ff685d;}.cls-7{fill:#f39cad;}.cls-8{fill:#ef6f2e;}.cls-9{fill:#f9b38c;}</style><clipPath id="clip-path"><circle class="cls-1" cx="501.41" cy="492.1" r="393.04"/></clipPath></defs><title>papa</title><circle class="cls-2" cx="501.41" cy="492.1" r="393.04"/><g class="cls-3"><ellipse class="cls-4" cx="500.97" cy="856.45" rx="153.25" ry="139.9"/><rect class="cls-5" x="468.15" y="614.1" width="71.29" height="153.89" rx="35.64" ry="35.64"/><ellipse class="cls-5" cx="503.8" cy="529.9" rx="161.5" ry="175.68"/><circle cx="435.32" cy="528.95" r="13.09"/><circle cx="575.52" cy="528.95" r="13.09"/><path class="cls-6" d="M505.45,665.9a42.21,42.21,0,0,0,42.22-42.21H463.24A42.21,42.21,0,0,0,505.45,665.9Z"/><path class="cls-7" d="M546.3,634.54a90,90,0,0,0-28.79-4.62c-19,0-36.25,5.66-48.62,14.79a42.22,42.22,0,0,0,77.41-10.17Z"/><ellipse class="cls-8" cx="411.6" cy="589.32" rx="23.73" ry="12.71"/><ellipse class="cls-8" cx="599.24" cy="589.32" rx="23.73" ry="12.71"/><circle class="cls-9" cx="517.1" cy="587.49" r="4.64"/><circle class="cls-9" cx="497.7" cy="587.49" r="4.64"/><path d="M643.35,568.93c.7-25.75-1.29-52.9-8.2-77.75-3.83-13.79-10.71-33.85-24.52-40.63-21.33-10.48-57.12.38-78,7.2C506,466.47,480.43,478.56,453,484.46s-57.9,4.88-81-11c-5.46,18.46-8.67,32.23-9.71,51.55v.05c-1.5,27.21,0,43.85,0,43.85H336.9S278.6,337.59,480.41,321c172.09-5.32,192.84,124,192.84,124s14.94,68-7.48,107.35v16.64Z"/><circle class="cls-5" cx="667.15" cy="552.64" r="30.21"/><circle class="cls-5" cx="335.66" cy="552.64" r="30.21"/><path d="M507.2,591.66S482,578.1,458.46,597.48s-31.69,27.11-53.62,16.78c0,0,39,34.87,78.8,25.18S511.85,593.6,507.2,591.66Z"/><path d="M509,591.66s25.18-13.56,48.74,5.82,31.69,27.11,53.62,16.78c0,0-39,34.87-78.8,25.18S504.36,593.6,509,591.66Z"/></g></svg>