<svg id="Layer_1" data-name="Layer 1" xmlns="http://www.w3.org/2000/svg" xmlns:xlink="http://www.w3.org/1999/xlink" viewBox="0 0 1000 1000"><defs><style>.cls-1{fill:none;}.cls-2{fill:#fff;}.cls-3{clip-path:url(#clip-path);}.cls-4{fill:#8ac3ce;}.cls-5{fill:#fedac2;}.cls-6{fill:#ff685d;}.cls-7{fill:#f39cad;}.cls-8{fill:#ef6f2e;}.cls-9{fill:#f9b38c;}.cls-10{fill:#794901;}</style><clipPath id="clip-path"><circle class="cls-1" cx="500" cy="524.99" r="393.04"/></clipPath></defs><title>kuya</title><circle class="cls-2" cx="500" cy="524.99" r="393.04"/><g class="cls-3"><ellipse class="cls-4" cx="499.56" cy="889.34" rx="153.25" ry="139.9"/><rect class="cls-5" x="466.75" y="646.98" width="71.29" height="153.89" rx="35.64" ry="35.64"/><ellipse class="cls-5" cx="502.39" cy="562.79" rx="161.5" ry="175.68"/><circle cx="433.92" cy="561.83" r="13.09"/><circle cx="574.11" cy="561.83" r="13.09"/><path class="cls-6" d="M504.05,698.79a42.21,42.21,0,0,0,42.21-42.22H461.83A42.22,42.22,0,0,0,504.05,698.79Z"/><path class="cls-7" d="M544.89,667.43a90,90,0,0,0-28.79-4.63c-19,0-36.25,5.67-48.61,14.79a42.21,42.21,0,0,0,77.4-10.16Z"/><ellipse class="cls-8" cx="410.19" cy="622.21" rx="23.73" ry="12.71"/><ellipse class="cls-8" cx="597.84" cy="622.21" rx="23.73" ry="12.71"/><circle class="cls-9" cx="515.69" cy="620.38" r="4.64"/><circle class="cls-9" cx="496.3" cy="620.38" r="4.64"/><path class="cls-10" d="M641.94,601.81c.7-25.74-1.29-52.9-8.19-77.75-3.83-13.78-10.71-33.84-24.52-40.63-21.34-10.47-57.12.38-78,7.2-26.63,8.73-52.25,20.81-79.65,26.72s-57.9,4.88-81-11c-5.46,18.46-8.67,32.22-9.71,51.54V558c-1.5,27.22,0,43.85,0,43.85H335.5s-58.3-231.34,143.5-248c172.09-5.31,192.84,124,192.84,124s14.95,68-7.48,107.35v16.63Z"/><circle class="cls-5" cx="665.75" cy="585.53" r="30.21"/><circle class="cls-5" cx="334.25" cy="585.53" r="30.21"/><path class="cls-10" d="M539,377s83,4.71,97.5-22.72c0,0,26.67,62.31-16.46,65.44S539,377,539,377Z"/></g></svg>