<svg id="Layer_1" data-name="Layer 1" xmlns="http://www.w3.org/2000/svg" xmlns:xlink="http://www.w3.org/1999/xlink" viewBox="0 0 1000 1000"><defs><style>.cls-1{fill:none;}.cls-2{fill:#fff;}.cls-3{fill:#f9b38c;}.cls-4{clip-path:url(#clip-path);}.cls-5{fill:#b08db5;}.cls-6{fill:#fedac2;}.cls-7{fill:#ff685d;}.cls-8{fill:#f39cad;}.cls-9{fill:#ef6f2e;}.cls-10{fill:#908f95;}</style><clipPath id="clip-path"><circle class="cls-1" cx="500" cy="488.04" r="393.04"/></clipPath></defs><title>lola</title><circle class="cls-2" cx="500" cy="488.04" r="393.04"/><circle class="cls-3" cx="519.28" cy="452.75" r="2.32"/><circle class="cls-3" cx="519.28" cy="452.75" r="2.32"/><g class="cls-4"><ellipse class="cls-5" cx="495.8" cy="854.21" rx="153.25" ry="139.9"/><rect class="cls-6" x="462.98" y="611.86" width="71.29" height="153.89" rx="35.64" ry="35.64"/><ellipse class="cls-6" cx="498.63" cy="527.66" rx="161.5" ry="175.68"/><circle class="cls-6" cx="661.99" cy="550.4" r="30.21"/><circle class="cls-6" cx="330.49" cy="550.4" r="30.21"/><circle cx="430.15" cy="526.71" r="13.09"/><circle cx="570.35" cy="526.71" r="13.09"/><path class="cls-7" d="M500.29,663.67a42.22,42.22,0,0,0,42.21-42.22H458.07A42.22,42.22,0,0,0,500.29,663.67Z"/><path class="cls-8" d="M541.13,632.3a90,90,0,0,0-28.79-4.62c-19,0-36.25,5.66-48.62,14.79a42.21,42.21,0,0,0,77.41-10.17Z"/><ellipse class="cls-9" cx="406.43" cy="587.08" rx="23.73" ry="12.71"/><ellipse class="cls-9" cx="594.07" cy="587.08" rx="23.73" ry="12.71"/><circle class="cls-3" cx="511.93" cy="585.25" r="4.64"/><circle class="cls-3" cx="492.53" cy="585.25" r="4.64"/><path class="cls-10" d="M535.39,437a100,100,0,0,1-45.65,23.81c-15.46,3.23-36.59-7-49.8,3.18-5.6,4.32-8.37,11.25-12.38,17.09-5.78,8.4-13.88,7.41-21.05,12.74-9.82,7.3-16.24,17.76-27.39,23.67-13.66,7.23-35,3.85-38.45-11.22a208,208,0,0,1,37.9,73.4c5.92,20.89,6.15,48.05-12.58,59-20.44,12-46.3-5.77-58.06-26.35-19.68-34.44-22.79-87.41-10.06-125,6.23-18.43,17.19-28.79,19.17-48.39a387.72,387.72,0,0,1,9.86-56.71c8.59-33.7,24.78-43.12,56.23-52.95C395,325.51,402.44,325,415,325.52c17,.74,22.76-4.38,35.38-15.15C490,276.49,552.07,295.9,585.71,327.91a78,78,0,0,0,27,16.55c5.91,2.14,8.6,2.93,17.91,2.82,7.26-.09,14.45.52,21,4,14.56,7.7,23.48,30.55,29.59,45.06,8.76,20.82,4.95,46.77,7.47,68.86,3.1,27.28,18,52.21,20.71,79.54,4,40.52-23.1,82-61.8,94.67-36.88,12.08-58.9-20.09-35.71-47.62,21.67-25.72,47.12-74.29,20.73-105.86-12.81-15.32-34.63-21.42-48.08-37.47-13.86-16.56-21.8-36.38-28.91-56.47C554.87,411.38,547.07,426,535.39,437Z"/></g></svg>