<svg id="Layer_1" data-name="Layer 1" xmlns="http://www.w3.org/2000/svg" xmlns:xlink="http://www.w3.org/1999/xlink" viewBox="0 0 1000 1000"><defs><style>.cls-1{fill:none;}.cls-2{fill:#fff;}.cls-3{clip-path:url(#clip-path);}.cls-4{fill:#11211e;}.cls-5{fill:#e9a401;}.cls-6{fill:#fedac2;}.cls-7{fill:#ff685d;}.cls-8{fill:#f39cad;}.cls-9{fill:#ef6f2e;}.cls-10{fill:#f9b38c;}</style><clipPath id="clip-path"><circle class="cls-1" cx="500" cy="475.01" r="393.04"/></clipPath></defs><title>ate</title><circle class="cls-2" cx="500" cy="475.01" r="393.04"/><g class="cls-3"><polygon class="cls-4" points="634.77 646.55 495.54 616.38 345.56 646.55 345.56 567.74 634.77 567.74 634.77 646.55"/><ellipse class="cls-5" cx="498.8" cy="822.16" rx="153.25" ry="139.9"/><rect class="cls-6" x="465.99" y="579.8" width="71.29" height="153.89" rx="35.64" ry="35.64"/><ellipse class="cls-6" cx="501.63" cy="495.61" rx="161.5" ry="175.68"/><circle cx="433.16" cy="494.65" r="13.09"/><circle cx="573.35" cy="494.65" r="13.09"/><path class="cls-7" d="M503.29,631.61a42.22,42.22,0,0,0,42.22-42.22H461.07A42.22,42.22,0,0,0,503.29,631.61Z"/><path class="cls-8" d="M544.13,600.25a90,90,0,0,0-28.79-4.63c-19,0-36.25,5.67-48.61,14.79a42.21,42.21,0,0,0,77.4-10.16Z"/><ellipse class="cls-9" cx="409.43" cy="555.02" rx="23.73" ry="12.71"/><ellipse class="cls-9" cx="597.08" cy="555.02" rx="23.73" ry="12.71"/><circle class="cls-10" cx="514.94" cy="553.2" r="4.64"/><circle class="cls-10" cx="495.54" cy="553.2" r="4.64"/><path class="cls-4" d="M610.91,389.22s-145.44,87.07-238.84,96.5c0,0-3.52,26.09-3.75,27.68-3,20.81-4.88,41.85-4.42,62.9.38,17.58,2.34,35.3,7.4,52.2a118.48,118.48,0,0,0,9.84,23.72,122.22,122.22,0,0,0,6.66,10.35c7,10-1.87,9.54-9.91,8.49a114.23,114.23,0,0,1-21.54-4.71c-16.59-5.58-31.31-16.49-37.26-33.5,0,0-75.63-300.62,116.42-345.27C596.14,253,616.62,327.86,616.62,327.86s82.62,59.53,78.84,159.69q-.26,6.75-.57,13.48c-1.53,31.67-4,63.38-8.23,94.81-2,14.36-1.55,31.57-10.15,44-9.26,13.44-29.87,21.62-45,25.58-4.41,1.16-17.62,5.39-18.33.46-.18-1.23,1.3-3.83,1.68-5,2-6.08,3.75-12.22,5.4-18.39a467.31,467.31,0,0,0,12.33-64.13C640.36,514.85,635.3,448.85,610.91,389.22Z"/><path class="cls-4" d="M605.67,443.64c13.39,22.6,31.14,42.25,48.76,61.74,1.92-23.51,3.83-47.21,1-70.63s-10.72-46.84-26.31-64.54c-11.65-13.23-40.63-20.53-44.09,3.6C581.74,396.89,594.28,424.4,605.67,443.64Z"/></g></svg>