<svg id="Layer_1" data-name="Layer 1" xmlns="http://www.w3.org/2000/svg" viewBox="0 0 1000 1000"><defs><style>.cls-1{fill:#fff;}.cls-2{fill:#4a74cc;}.cls-3{fill:none;stroke:#4a74cc;stroke-miterlimit:10;stroke-width:40px;}</style></defs><title>occupation_circle</title><circle class="cls-1" cx="496.57" cy="498.96" r="422.92"/><rect class="cls-2" x="178.12" y="316.8" width="636.89" height="429.99" rx="39.4" ry="39.4"/><rect class="cls-3" x="410.68" y="251.14" width="171.77" height="142.26" rx="23.29" ry="23.29"/><path class="cls-1" d="M228.21,337.59H764.93A50.09,50.09,0,0,1,815,387.68v71a82.49,82.49,0,0,1-82.49,82.49H260.62a82.49,82.49,0,0,1-82.49-82.49v-71A50.09,50.09,0,0,1,228.21,337.59Z"/><path class="cls-2" d="M205.23,316.8H787.91A27.1,27.1,0,0,1,815,343.9v81.36a95.08,95.08,0,0,1-95.08,95.08H273.2a95.08,95.08,0,0,1-95.08-95.08V343.9A27.1,27.1,0,0,1,205.23,316.8Z"/><rect class="cls-1" x="291.4" y="483.72" width="38.58" height="92.17" rx="19.01" ry="19.01"/><rect class="cls-1" x="659.6" y="483.72" width="38.58" height="92.17" rx="19.01" ry="19.01"/><rect class="cls-1" x="478.64" y="541.13" width="35.85" height="73.32"/></svg>