<svg id="Layer_1" data-name="Layer 1" xmlns="http://www.w3.org/2000/svg" viewBox="0 0 1000 1000"><defs><style>.cls-1{fill:#fff;}.cls-2{fill:#4a74cc;}</style></defs><title>school_circle</title><circle class="cls-1" cx="510.95" cy="499.61" r="422.92"/><path class="cls-2" d="M230,367.4,529.11,272a10.48,10.48,0,0,1,6.39,0l297.07,95.58a10.46,10.46,0,0,1,.21,19.84L541.39,488a10.45,10.45,0,0,1-6.7,0L229.9,387.3A10.46,10.46,0,0,1,230,367.4Z"/><path class="cls-2" d="M323.7,397.76c-4-.61-18.74,31.23-20.92,35.34-22.17,41.77-19.11,91.69-34.26,136.09C253,614.83,222.61,653,182.08,679.09c0,0-1.91,38.27,53.59,47.84,52.19,9,66.85-60.66,69.18-98.74,3.2-52.19,2.6-106.32,17.19-157.13,5-17.28,13.88-45.54,35.16-48.42C413.64,415,323.76,397.77,323.7,397.76Z"/><ellipse class="cls-2" cx="300.72" cy="492.49" rx="40.67" ry="25.84"/><path class="cls-2" d="M703.33,482.78,721.07,554a11.1,11.1,0,0,1-6,12.7l-165,79.48a11.11,11.11,0,0,1-9.3.15l-172.46-76.1a11.12,11.12,0,0,1-6.25-13l19.84-74.62a11.11,11.11,0,0,1,14.41-7.63l142.58,50a11.16,11.16,0,0,0,7.35,0L688.87,475A11.12,11.12,0,0,1,703.33,482.78Z"/></svg>